<svg xmlns="http://www.w3.org/2000/svg" width="204" height="40" fill="none"><path fill="#1E2427" d="M33.952 0H0v33.957h33.952V0Z"/><path fill="#fff" d="M27.766 33.986c-3.03 0-5.333-.806-6.906-2.418-1.573-1.63-2.359-4.134-2.359-7.51 0-3.281.767-5.756 2.302-7.425 1.534-1.688 3.855-2.532 6.963-2.532 1.016 0 2.033.124 3.05.374 1.036.25 2.033.595 2.992 1.036v3.453c-.978-.614-1.928-1.055-2.848-1.324a9.537 9.537 0 0 0-2.676-.403c-1.266 0-2.33.23-3.194.691-.844.441-1.487 1.16-1.928 2.158-.422.998-.633 2.331-.633 4 0 1.65.22 2.974.662 3.972.441.997 1.093 1.717 1.957 2.158.882.441 1.975.662 3.28.662.786 0 1.63-.135 2.532-.403.92-.269 1.87-.7 2.848-1.295v3.453a13.12 13.12 0 0 1-1.87.72c-.671.21-1.362.364-2.072.46-.71.115-1.41.173-2.1.173Z"/><path fill="#2C898A" d="M67.665 0H33.712v33.957h33.953V0Z"/><path fill="#fff" d="M60.28 33.957V14.763h3.912v19.194H60.28Z"/><path fill="#65843A" d="M101.376 0H67.424v33.957h33.952V0Z"/><path fill="#fff" d="M84.736 33.957V14.763h3.51l10.474 14.33-1.122 2.303V14.763h3.625v19.194h-3.165L87.326 19.568l1.064-1.755v16.144h-3.654Z"/><path fill="#CDAD3B" d="M135.089 0h-33.952v33.957h33.952V0Z"/><path fill="#fff" d="M122.141 33.957V14.763h12.861v3.136h-8.948v4.864h7.769v3.165h-7.769v4.892h8.948v3.137h-12.861Z"/><path fill="#C05423" d="M168.801 0h-33.952v33.957h33.952V0Z"/><path fill="#fff" d="M149.188 33.957V14.763h4.028l6.733 9.669-2.216.172 7.05-9.841h3.913v19.194h-3.885V17.87l.892 1.037-6.934 9.41-6.733-9.44.921-.805v15.885h-3.769Z"/><path fill="#C7C5B0" d="M202.513 0h-33.952v33.957h33.952V0Z"/><path fill="#fff" d="M193.21 33.727c-1.899 0-3.529-.355-4.891-1.065-1.362-.73-2.408-1.823-3.137-3.28-.728-1.478-1.093-3.339-1.093-5.584 0-3.28.786-5.755 2.359-7.424 1.592-1.688 3.847-2.532 6.762-2.532 1.918 0 3.558.364 4.92 1.093 1.362.73 2.408 1.823 3.137 3.28.748 1.459 1.122 3.32 1.122 5.584 0 3.26-.796 5.736-2.388 7.424-1.573 1.669-3.837 2.504-6.791 2.504Zm0-3.252c1.151 0 2.101-.221 2.849-.662.767-.46 1.342-1.18 1.726-2.158.384-.979.575-2.274.575-3.885 0-1.612-.191-2.897-.575-3.856-.384-.979-.959-1.689-1.726-2.13-.748-.441-1.698-.662-2.849-.662-1.113 0-2.052.23-2.82.69-.748.442-1.314 1.152-1.697 2.13-.384.96-.576 2.245-.576 3.857 0 1.611.192 2.906.576 3.884.383.979.949 1.689 1.697 2.13.768.441 1.707.662 2.82.662Z"/></svg>