<svg xmlns="http://www.w3.org/2000/svg" width="189" height="295" fill="none"><path stroke="#000" stroke-linejoin="round" stroke-width="5" d="M169.766 1c5.903 15.742 9.445 42.503-23.613 23.613-12.987 16.529-26.072 6.887-30.992 0"/><path fill="#fff" d="M47.274 195.806c12.299 30.992 37.19 93.566 38.371 95.928 1.18 2.361 41.815-18.694 61.984-29.516l-4.427-1.476 36.895-19.186h-10.331l-25.089-28.04h-39.846l-57.557-17.71Z"/><path stroke="#000" stroke-linejoin="round" stroke-width="5" d="m104.831 213.516 33.943 45.75 4.428 1.476m-38.371-47.226-57.557-17.71c12.299 30.992 37.19 93.566 38.371 95.928 1.18 2.361 41.815-18.694 61.984-29.516l-4.427-1.476m-38.371-47.226h39.846l25.089 28.04h10.331l-36.895 19.186"/><path fill="#CDAD3B" stroke="#000" stroke-linejoin="round" stroke-width="5" d="M168.29 231.226 186 62.984 35.468 51.177 3 203.185l165.29 28.041Z"/><ellipse cx="4.427" cy="7.379" fill="#000" rx="4.427" ry="7.379" transform="matrix(-1 0 0 1 160.911 104.306)"/><ellipse cx="4.427" cy="7.379" fill="#000" rx="4.427" ry="7.379" transform="matrix(-1 0 0 1 128.443 98.403)"/><path stroke="#000" stroke-linejoin="round" stroke-width="5" d="M141.726 110.21c2.952 11.314 8.265 34.534 5.903 36.895-2.361 2.361-10.823.984-14.758 0"/><ellipse cx="10.331" cy="17.71" fill="#fff" stroke="#000" stroke-linejoin="round" stroke-width="5" rx="10.331" ry="17.71" transform="scale(-1 1) rotate(-8.467 974.07 901.242)"/></svg>