<svg width="400" height="400" viewBox="0 0 400 400" fill="none" xmlns="http://www.w3.org/2000/svg">
  <rect width="400" height="400" fill="#F3F4F6"/>
  <path d="M200 100C144.772 100 100 144.772 100 200C100 255.228 144.772 300 200 300C255.228 300 300 255.228 300 200C300 144.772 255.228 100 200 100ZM200 280C155.817 280 120 244.183 120 200C120 155.817 155.817 120 200 120C244.183 120 280 155.817 280 200C280 244.183 244.183 280 200 280Z" fill="#9CA3AF"/>
  <path d="M200 140C166.863 140 140 166.863 140 200C140 233.137 166.863 260 200 260C233.137 260 260 233.137 260 200C260 166.863 233.137 140 200 140ZM200 240C177.909 240 160 222.091 160 200C160 177.909 177.909 160 200 160C222.091 160 240 177.909 240 200C240 222.091 222.091 240 200 240Z" fill="#6B7280"/>
  <path d="M200 180C188.954 180 180 188.954 180 200C180 211.046 188.954 220 200 220C211.046 220 220 211.046 220 200C220 188.954 211.046 180 200 180Z" fill="#4B5563"/>
  <path d="M120 120L280 280" stroke="#9CA3AF" stroke-width="8" stroke-linecap="round"/>
  <path d="M280 120L120 280" stroke="#9CA3AF" stroke-width="8" stroke-linecap="round"/>
</svg> 